<svg width="26" height="26" viewBox="0 0 26 26" fill="none" xmlns="http://www.w3.org/2000/svg">
<circle cx="13" cy="13" r="13" fill="#FEFEFE"/>
<path d="M15.6667 11.6665C15.6667 12.3737 15.3857 13.052 14.8856 13.5521C14.3855 14.0522 13.7073 14.3332 13 14.3332C12.2928 14.3332 11.6145 14.0522 11.1144 13.5521C10.6143 13.052 10.3333 12.3737 10.3333 11.6665" stroke="#2563EB" stroke-width="1.7" stroke-linecap="round" stroke-linejoin="round"/>
<path d="M7.06866 9.02246H18.9313" stroke="#2563EB" stroke-width="1.7" stroke-linecap="round" stroke-linejoin="round"/>
<path d="M7.26667 8.64483C7.09357 8.87562 7 9.15634 7 9.44483V18.3335C7 18.6871 7.14048 19.0263 7.39052 19.2763C7.64057 19.5264 7.97971 19.6668 8.33333 19.6668H17.6667C18.0203 19.6668 18.3594 19.5264 18.6095 19.2763C18.8595 19.0263 19 18.6871 19 18.3335V9.44483C19 9.15634 18.9064 8.87562 18.7333 8.64483L17.4 6.86683C17.2758 6.70123 17.1148 6.56683 16.9296 6.47426C16.7445 6.38169 16.5403 6.3335 16.3333 6.3335H9.66667C9.45967 6.3335 9.25552 6.38169 9.07038 6.47426C8.88524 6.56683 8.7242 6.70123 8.6 6.86683L7.26667 8.64483Z" stroke="#2563EB" stroke-width="1.7" stroke-linecap="round" stroke-linejoin="round"/>
</svg>
