<svg width="82" height="28" viewBox="0 0 82 28" fill="none" xmlns="http://www.w3.org/2000/svg">
<path d="M16 12C16 13.0609 15.5786 14.0783 14.8284 14.8284C14.0783 15.5786 13.0609 16 12 16C10.9391 16 9.92172 15.5786 9.17157 14.8284C8.42143 14.0783 8 13.0609 8 12" stroke="#2563EB" stroke-width="2" stroke-linecap="round" stroke-linejoin="round"/>
<path d="M3.103 8.03418H20.897" stroke="#2563EB" stroke-width="2" stroke-linecap="round" stroke-linejoin="round"/>
<path d="M3.4 7.467C3.14036 7.81319 3 8.23426 3 8.667V22C3 22.5304 3.21071 23.0391 3.58579 23.4142C3.96086 23.7893 4.46957 24 5 24H19C19.5304 24 20.0391 23.7893 20.4142 23.4142C20.7893 23.0391 21 22.5304 21 22V8.667C21 8.23426 20.8596 7.81319 20.6 7.467L18.6 4.8C18.4137 4.55161 18.1721 4.35 17.8944 4.21115C17.6167 4.07229 17.3105 4 17 4H7C6.68951 4 6.38328 4.07229 6.10557 4.21115C5.82786 4.35 5.58629 4.55161 5.4 4.8L3.4 7.467Z" stroke="#2563EB" stroke-width="2" stroke-linecap="round" stroke-linejoin="round"/>
<path d="M39.7816 10.6921C39.7333 10.2051 39.526 9.82682 39.1598 9.55717C38.7936 9.28752 38.2965 9.1527 37.6687 9.1527C37.2421 9.1527 36.8819 9.21307 36.5881 9.33381C36.2943 9.45052 36.0689 9.61352 35.9119 9.8228C35.759 10.0321 35.6825 10.2695 35.6825 10.5352C35.6745 10.7565 35.7208 10.9497 35.8214 11.1147C35.926 11.2797 36.0689 11.4226 36.25 11.5433C36.4311 11.66 36.6404 11.7627 36.8778 11.8512C37.1153 11.9357 37.3688 12.0082 37.6385 12.0685L38.7493 12.3342C39.2886 12.4549 39.7836 12.6159 40.2344 12.8171C40.6851 13.0183 41.0755 13.2659 41.4055 13.5597C41.7356 13.8535 41.9911 14.1996 42.1722 14.598C42.3574 14.9964 42.4519 15.4532 42.456 15.9684C42.4519 16.725 42.2588 17.381 41.8764 17.9364C41.4981 18.4878 40.9508 18.9164 40.2344 19.2223C39.522 19.5241 38.6628 19.6751 37.6566 19.6751C36.6585 19.6751 35.7892 19.5221 35.0487 19.2163C34.3121 18.9104 33.7366 18.4576 33.3221 17.858C32.9116 17.2543 32.6963 16.5077 32.6761 15.6183H35.2056C35.2338 16.0328 35.3525 16.3789 35.5618 16.6566C35.7751 16.9303 36.0588 17.1375 36.413 17.2784C36.7712 17.4152 37.1757 17.4837 37.6264 17.4837C38.0691 17.4837 38.4535 17.4193 38.7795 17.2905C39.1095 17.1617 39.3651 16.9826 39.5462 16.7532C39.7273 16.5238 39.8178 16.2602 39.8178 15.9624C39.8178 15.6847 39.7353 15.4512 39.5703 15.2621C39.4093 15.0729 39.1719 14.9119 38.858 14.7791C38.5481 14.6463 38.1677 14.5256 37.717 14.4169L36.3707 14.0788C35.3284 13.8253 34.5053 13.4289 33.9016 12.8896C33.2979 12.3503 32.9981 11.6238 33.0021 10.7102C32.9981 9.96165 33.1973 9.30765 33.5998 8.74822C34.0063 8.1888 34.5637 7.75213 35.272 7.43821C35.9804 7.12429 36.7853 6.96733 37.6868 6.96733C38.6044 6.96733 39.4053 7.12429 40.0895 7.43821C40.7777 7.75213 41.313 8.1888 41.6953 8.74822C42.0777 9.30765 42.2749 9.95561 42.2869 10.6921H39.7816ZM49.0981 10.2273V12.1591H43.5139V10.2273H49.0981ZM44.7817 8.00568H47.3534V16.6506C47.3534 16.888 47.3896 17.0732 47.4621 17.206C47.5345 17.3348 47.6352 17.4253 47.7639 17.4776C47.8968 17.5299 48.0497 17.5561 48.2227 17.5561C48.3435 17.5561 48.4642 17.546 48.585 17.5259C48.7057 17.5018 48.7983 17.4837 48.8627 17.4716L49.2671 19.3853C49.1383 19.4255 48.9572 19.4718 48.7238 19.5241C48.4904 19.5805 48.2066 19.6147 47.8726 19.6268C47.2528 19.6509 46.7095 19.5684 46.2426 19.3793C45.7798 19.1901 45.4196 18.8963 45.162 18.4979C44.9044 18.0994 44.7777 17.5964 44.7817 16.9886V8.00568ZM54.8634 19.6811C53.9256 19.6811 53.1147 19.4819 52.4305 19.0835C51.7503 18.681 51.2251 18.1216 50.8548 17.4052C50.4846 16.6848 50.2994 15.8497 50.2994 14.8999C50.2994 13.942 50.4846 13.1049 50.8548 12.3885C51.2251 11.6681 51.7503 11.1087 52.4305 10.7102C53.1147 10.3078 53.9256 10.1065 54.8634 10.1065C55.8011 10.1065 56.6101 10.3078 57.2902 10.7102C57.9744 11.1087 58.5016 11.6681 58.8719 12.3885C59.2422 13.1049 59.4273 13.942 59.4273 14.8999C59.4273 15.8497 59.2422 16.6848 58.8719 17.4052C58.5016 18.1216 57.9744 18.681 57.2902 19.0835C56.6101 19.4819 55.8011 19.6811 54.8634 19.6811ZM54.8754 17.6889C55.3021 17.6889 55.6582 17.5682 55.944 17.3267C56.2297 17.0812 56.445 16.7472 56.5899 16.3246C56.7388 15.902 56.8133 15.421 56.8133 14.8817C56.8133 14.3424 56.7388 13.8615 56.5899 13.4389C56.445 13.0163 56.2297 12.6823 55.944 12.4368C55.6582 12.1913 55.3021 12.0685 54.8754 12.0685C54.4448 12.0685 54.0826 12.1913 53.7888 12.4368C53.499 12.6823 53.2797 13.0163 53.1308 13.4389C52.9859 13.8615 52.9134 14.3424 52.9134 14.8817C52.9134 15.421 52.9859 15.902 53.1308 16.3246C53.2797 16.7472 53.499 17.0812 53.7888 17.3267C54.0826 17.5682 54.4448 17.6889 54.8754 17.6889ZM61.0995 19.5V10.2273H63.5928V11.8452H63.6894C63.8584 11.2696 64.1421 10.835 64.5406 10.5412C64.939 10.2434 65.3978 10.0945 65.917 10.0945C66.0458 10.0945 66.1846 10.1025 66.3335 10.1186C66.4825 10.1347 66.6133 10.1568 66.7259 10.185V12.467C66.6052 12.4308 66.4382 12.3986 66.2249 12.3704C66.0116 12.3422 65.8164 12.3281 65.6393 12.3281C65.261 12.3281 64.9229 12.4106 64.6251 12.5756C64.3313 12.7366 64.0979 12.962 63.9248 13.2518C63.7558 13.5415 63.6713 13.8756 63.6713 14.2539V19.5H61.0995ZM71.8498 19.6811C70.896 19.6811 70.0749 19.4879 69.3867 19.1016C68.7025 18.7112 68.1753 18.1598 67.805 17.4474C67.4348 16.7311 67.2496 15.8839 67.2496 14.9059C67.2496 13.9521 67.4348 13.1149 67.805 12.3945C68.1753 11.6741 68.6965 11.1127 69.3686 10.7102C70.0447 10.3078 70.8376 10.1065 71.7472 10.1065C72.3589 10.1065 72.9284 10.2051 73.4556 10.4023C73.9869 10.5955 74.4497 10.8873 74.8441 11.2777C75.2425 11.6681 75.5524 12.1591 75.7738 12.7507C75.9951 13.3383 76.1058 14.0265 76.1058 14.8153V15.5217H68.2759V13.9279H73.685C73.685 13.5576 73.6045 13.2296 73.4435 12.9439C73.2826 12.6581 73.0592 12.4348 72.7734 12.2738C72.4917 12.1088 72.1637 12.0263 71.7894 12.0263C71.399 12.0263 71.0529 12.1168 70.7511 12.2979C70.4532 12.475 70.2198 12.7145 70.0508 13.0163C69.8817 13.3142 69.7952 13.6462 69.7912 14.0124V15.5277C69.7912 15.9865 69.8757 16.3829 70.0447 16.717C70.2178 17.051 70.4613 17.3086 70.7752 17.4897C71.0891 17.6708 71.4614 17.7614 71.892 17.7614C72.1778 17.7614 72.4394 17.7211 72.6768 17.6406C72.9143 17.5601 73.1175 17.4394 73.2866 17.2784C73.4556 17.1174 73.5844 16.9202 73.6729 16.6868L76.0515 16.8438C75.9308 17.4152 75.6832 17.9143 75.3089 18.3409C74.9387 18.7635 74.4598 19.0935 73.8722 19.331C73.2886 19.5644 72.6145 19.6811 71.8498 19.6811Z" fill="#111827"/>
</svg>
